#!OML:ASF H:\Terrain\Patient Classification 1\Walking\liu\liu.ASF
:FULLY-SPECIFIED
:DEGREES
262
root 0.0222 15.9443 52.9943 8.61333 0.123 -5.41976
lowerback -4.04409 1.91891 1.79552
upperback 0.52457 2.37226 3.48793
thorax 2.73294 1.18337 2.73702
lowerneck -22.649 -4.58975 -11.5017
upperneck 21.1206 -5.46377 11.5852
head 11.2632 -1.99595 5.31551
rclavicle 1.19271e-015 -5.56597e-015
rhumerus -23.8141 26.5416 -84.358
rradius 47.6184
rwrist -21.1957
rhand -31.7778 -23.6789
rfingers 7.12502
rthumb -5.03414 -53.5991
lclavicle 1.19271e-015 -5.56597e-015
lhumerus -54.5908 -3.33812 89.1309
lradius 24.2278
lwrist 1.40401
lhand -8.66091 -18.8064
lfingers 7.12502
lthumb 17.2728 10.446
rfemur 6.13947 4.1018 29.9923
rtibia 11.0819
rfoot -12.3978 6.97967
rtoes -6.32854
lfemur -39.1228 -1.98784 -10.8605
ltibia 13.8865
lfoot -10.2168 13.8379
ltoes -11.5968
263
root 0.0222 15.9312 53.1831 8.61133 0.123 -5.16269
lowerback -4.063 1.93734 1.33762
upperback 0.507989 2.4184 3.56316
thorax 2.7026 1.19945 3.07472
lowerneck -22.7659 -4.68244 -11.7625
upperneck 21.1317 -5.55025 11.8066
head 11.3179 -2.02674 5.43224
rclavicle 5.71506e-015 -1.23246e-014
rhumerus -23.646 26.6348 -83.9923
rradius 47.7848
rwrist -21.0557
rhand -31.2053 -22.5029
rfingers 7.12502
rthumb -4.48143 -52.4355
lclavicle 5.71506e-015 -1.23246e-014
lhumerus -54.8999 -2.5881 88.6335
lradius 23.904
lwrist 0.706508
lhand -8.14263 -19.2397
lfingers 7.12502
lthumb 17.7716 9.9682
rfemur 7.3211 3.67128 29.4548
rtibia 10.2767
rfoot -11.5669 7.43206
rtoes -7.25724
lfemur -38.9596 -3.02944 -10.6188
ltibia 13.1145
lfoot -10.8568 14.6795
ltoes -10.6789
264
root 0.0222 15.912 53.372 8.5807 0.123 -5.51278
lowerback -4.60751 1.99733 1.94605
upperback 1.06368 2.42459 3.45355
thorax 3.61387 1.20943 2.66163
lowerneck -23.0689 -4.80718 -11.9801
upperneck 20.551 -5.69756 12.3054
head 11.2059 -2.04115 5.616
rclavicle -1.26725e-014 3.10104e-014
rhumerus -22.2824 26.4095 -83.7148
rradius 47.6666
rwrist -20.8752
rhand -30.6413 -22.3547
rfingers 7.12502
rthumb -3.93677 -52.2981
lclavicle -1.26725e-014 3.10104e-014
lhumerus -54.3162 -2.35186 87.928
lradius 23.6125
lwrist 0.48621
lhand -8.0787 -19.6578
lfingers 7.12502
lthumb 17.8331 9.54452
rfemur 8.63307 3.78199 29.7197
rtibia 9.32032
rfoot -10.7548 7.36886
rtoes -8.8524
lfemur -38.9496 -3.20715 -10.1891
ltibia 13.0353
lfoot -11.2978 14.986
ltoes -9.9277
265
root 0.0223 15.8996 53.5608 8.53254 0.123 -6.28019
lowerback -4.17382 2.12119 2.73853
upperback 0.92004 2.56483 3.62277
thorax 3.24465 1.29333 2.38035
lowerneck -22.7652 -4.90375 -12.1826
upperneck 20.4135 -5.83325 12.4845
head 11.131 -2.10707 5.6905
rclavicle 2.30093e-014 -1.98785e-015
rhumerus -22.3492 26.2393 -83.7211
rradius 47.6727
rwrist -20.7806
rhand -30.5465 -22.85
rfingers 7.12502
rthumb -3.84519 -52.795
lclavicle 2.30093e-014 -1.98785e-015
lhumerus -54.6101 -1.97489 87.3846
lradius 23.1839
lwrist -0.0765012
lhand -8.18787 -19.5546
lfingers 7.12502
lthumb 17.7281 9.65725
rfemur 10.0283 3.88771 30.4218
rtibia 7.77903
rfoot -9.34272 7.20553
rtoes -9.85429
lfemur -39.1647 -2.51361 -9.86959
ltibia 13.78
lfoot -11.4527 14.4208
ltoes -9.50379
266
root 0.0223 15.8853 53.7497 8.42705 0.123 -6.47991
lowerback -4.07419 2.14547 2.96024
upperback 0.940215 2.58774 3.67939
thorax 3.21656 1.30827 2.31306
lowerneck -22.6927 -4.89625 -11.9386
upperneck 20.4238 -5.86328 12.2768
head 11.1095 -2.12778 5.5631
rclavicle -1.85864e-014 9.93923e-015
rhumerus -22.4688 26.2845 -83.7525
rradius 47.9297
rwrist -21.1245
rhand -31.3746 -23.4023
rfingers 7.12502
rthumb -4.64484 -53.3313
lclavicle -1.85864e-014 9.93923e-015
lhumerus -54.7276 -1.67056 87.0421
lradius 22.9161
lwrist -0.239381
lhand -8.37417 -19.1853
lfingers 7.12502
lthumb 17.5488 10.0427
rfemur 11.2416 3.85338 30.4769
rtibia 6.5087
rfoot -7.80724 7.07851
rtoes -9.7063
lfemur -39.3201 -1.63943 -10.4448
ltibia 14.8087
lfoot -11.3775 13.3722
ltoes -9.00679
267
root 0.0223 15.8668 53.9385 8.31869 0.123 -6.37868
lowerback -4.04668 2.06247 2.78674
upperback 1.00912 2.48276 3.74008
thorax 3.26392 1.25241 2.46653
lowerneck -23.0318 -4.77529 -11.5789
upperneck 20.6811 -5.69322 11.8619
head 11.217 -2.06082 5.38088
rclavicle -7.40473e-015 8.34896e-015
rhumerus -22.5373 26.5665 -83.6999
rradius 48.2979
rwrist -21.4404
rhand -32.7796 -22.7526
rfingers 7.12502
rthumb -6.00141 -52.6476
lclavicle -7.40473e-015 8.34896e-015
lhumerus -54.9293 -1.33729 86.916
lradius 22.8666
lwrist -0.227896
lhand -8.48805 -19.3173
lfingers 7.12502
lthumb 17.4392 9.92038
rfemur 12.1833 3.74739 30.2253
rtibia 5.97981
rfoot -6.77286 7.15773
rtoes -9.80122
lfemur -39.3925 -0.701644 -11.4657
ltibia 15.8816
lfoot -11.0087 12.3912
ltoes -9.61484
268
root 0.0223 15.8496 54.1274 8.30205 0.123 -6.54994
lowerback -4.08067 2.05307 2.9462
upperback 1.09505 2.45319 3.81169
thorax 3.37666 1.24031 2.45408
lowerneck -23.2645 -4.7642 -11.491
upperneck 20.6821 -5.62947 11.6636
head 11.242 -2.04177 5.3008
rclavicle -1.21756e-014 1.98785e-015
rhumerus -22.3191 26.4509 -83.4689
rradius 48.2787
rwrist -20.9615
rhand -32.9124 -21.2882
rfingers 7.12502
rthumb -6.12965 -51.1795
lclavicle -1.21756e-014 1.98785e-015
lhumerus -54.866 -0.834109 86.4458
lradius 22.5323
lwrist -0.926164
lhand -8.85868 -19.4064
lfingers 7.12502
lthumb 17.0825 9.86261
rfemur 13.0853 3.69278 30.2641
rtibia 5.57439
rfoot -5.87349 7.14897
rtoes -10.8827
lfemur -39.5713 0.5543 -12.3545
ltibia 17.1013
lfoot -10.6472 11.3352
ltoes -11.9168
269
root 0.0224 15.8421 54.3162 8.39779 0.123 -6.78638
lowerback -4.23678 2.1094 3.14437
upperback 1.09357 2.50605 3.8795
thorax 3.46814 1.26997 2.42461
lowerneck -23.1151 -4.85314 -11.7385
upperneck 20.4825 -5.68328 11.7292
head 11.1574 -2.08262 5.35126
rclavicle 4.14466e-014 -6.75868e-015
rhumerus -22.3056 26.3309 -83.3871
rradius 48.2113
rwrist -20.7568
rhand -32.1429 -22.2867
rfingers 7.12502
rthumb -5.38671 -52.1983
lclavicle 4.14466e-014 -6.75868e-015
lhumerus -54.7379 -0.00553996 85.5558
lradius 21.8657
lwrist -2.13639
lhand -9.14517 -19.707
lfingers 7.12502
lthumb 16.8067 9.58567
rfemur 14.248 3.79437 30.323
rtibia 4.64286
rfoot -4.41427 6.77925
rtoes -9.92032
lfemur -39.8688 1.76403 -13.0426
ltibia 18.599
lfoot -9.7337 10.3234
ltoes -13.2948
270
root 0.0224 15.846 54.5051 8.51113 0.123 -7.01975
lowerback -4.3297 2.16072 3.24064
upperback 0.999247 2.5641 4.00299
thorax 3.42074 1.29906 2.50432
lowerneck -22.9825 -4.94675 -12.1342
upperneck 20.4792 -5.74205 11.9269
head 11.1596 -2.12175 5.48483
rclavicle -5.11871e-015 -1.70955e-014
rhumerus -22.6981 26.479 -83.456
rradius 48.4254
rwrist -21.2017
rhand -32.2239 -23.9589
rfingers 7.12502
rthumb -5.46487 -53.8684
lclavicle -5.11871e-015 -1.70955e-014
lhumerus -54.8523 0.377511 85.2527
lradius 21.4904
lwrist -2.27472
lhand -9.1323 -20.1077
lfingers 7.12502
lthumb 16.8191 9.18386
rfemur 15.3177 3.98308 30.3548
rtibia 3.81024
rfoot -2.93283 6.41418
rtoes -9.18732
lfemur -40.0681 2.63859 -13.4443
ltibia 20.0683
lfoot -7.57641 9.75971
ltoes -11.7842
271
root 0.0224 15.8493 54.6939 8.58509 0.123 -7.13327
lowerback -4.31861 2.1378 3.25928
upperback 0.924676 2.53365 4.10632
thorax 3.33408 1.28282 2.59585
lowerneck -22.9803 -4.98258 -12.4107
upperneck 20.4036 -5.73492 12.1046
head 11.1458 -2.11962 5.5993
rclavicle -8.94531e-016 5.56597e-015
rhumerus -22.9841 26.6503 -83.5051
rradius 48.548
rwrist -21.6432
rhand -32.9575 -24.4836
rfingers 7.12502
rthumb -6.17317 -54.3736
lclavicle -8.94531e-016 5.56597e-015
lhumerus -54.7945 0.887174 84.887
lradius 21.1161
lwrist -2.45677
lhand -8.78683 -20.8338
lfingers 7.12502
lthumb 17.1516 8.42913
rfemur 15.8828 3.97904 30.3149
rtibia 3.66721
rfoot -1.7703 6.23977
rtoes -10.5934
lfemur -40.3182 2.82932 -13.5711
ltibia 21.3765
lfoot -5.48861 9.82793
ltoes -8.35326
272
root 0.0224 15.8495 54.8828 8.55325 0.123 -6.85959
lowerback -4.25198 2.11827 3.01441
upperback 0.874724 2.53232 3.97723
thorax 3.23936 1.2787 2.59359
lowerneck -22.9808 -4.96315 -12.4473
upperneck 20.2714 -5.75581 12.379
head 11.1118 -2.0989 5.70323
rclavicle 2.66371e-014 2.78299e-014
rhumerus -23.2315 26.3775 -83.7198
rradius 48.4728
rwrist -21.8233
rhand -33.3627 -24.936
rfingers 7.12502
rthumb -6.56433 -54.8142
lclavicle 2.66371e-014 2.78299e-014
lhumerus -54.6822 1.47759 84.0373
lradius 20.8051
lwrist -3.3683
lhand -8.18054 -21.3484
lfingers 7.12502
lthumb 17.7351 7.86281
rfemur 16.192 3.85969 29.8383
rtibia 4.06596
rfoot -0.613091 6.41568
rtoes -12.0339
lfemur -40.7015 2.6396 -13.9094
ltibia 22.8118
lfoot -4.21187 10.0322
ltoes -7.02092
